<svg xmlns="http://www.w3.org/2000/svg" width="19" height="19" viewBox="0 0 19 19"><path fill-rule="evenodd" clip-rule="evenodd" fill="#9F9F9F" d="M11.312 7.688h1.812v-1.813h-1.812v1.813zm-1.812-7.698c-5.252 0-9.509 4.258-9.509 9.509 0 5.252 4.257 9.51 9.509 9.51 5.251 0 9.509-4.258 9.509-9.51.001-5.251-4.257-9.509-9.509-9.509zm4.531 12.682c0 .75-.609 1.359-1.359 1.359h-6.344c-.75 0-1.359-.609-1.359-1.359v-3.172h2.266c0 1.251 1.014 2.266 2.266 2.266s2.266-1.015 2.266-2.266h2.266v3.172zm0-4.078h-2.457c-.35-.8-1.146-1.359-2.074-1.359-.928 0-1.725.56-2.074 1.359h-2.457v-2.266c0-.75.609-1.359 1.359-1.359h6.344c.75 0 1.359.609 1.359 1.359v2.266z" enable-background="new"/></svg>