<svg xmlns="http://www.w3.org/2000/svg" width="19" height="19" viewBox="0 0 19 19"><path fill-rule="evenodd" clip-rule="evenodd" fill="#9F9F9F" d="M9.5.01c-5.242 0-9.49 4.25-9.49 9.49 0 5.242 4.249 9.489 9.49 9.489 5.242 0 9.49-4.247 9.49-9.489 0-5.24-4.248-9.49-9.49-9.49zm-2.838 13.474c-.636 0-1.151-.516-1.151-1.151s.515-1.15 1.151-1.15 1.151.516 1.151 1.15c0 .636-.515 1.151-1.151 1.151zm2.793.014c0-1.096-.442-2.08-1.159-2.798-.719-.718-1.703-1.159-2.798-1.16v-1.683c3.116 0 5.641 2.524 5.641 5.641h-1.684zm2.862 0c-.001-1.887-.763-3.585-1.998-4.822-1.236-1.236-2.936-1.997-4.821-1.997v-1.685c4.696.001 8.502 3.808 8.502 8.504h-1.683z" enable-background="new"/></svg>