<svg xmlns="http://www.w3.org/2000/svg" width="19" height="19" viewBox="0 0 19 19"><path fill="#9F9F9F" d="M9.5.01c-5.242 0-9.49 4.249-9.49 9.49s4.248 9.49 9.49 9.49 9.49-4.249 9.49-9.49-4.248-9.49-9.49-9.49zm4.668 7.566l.006.297c0 3.041-2.314 6.548-6.547 6.548-1.3 0-2.509-.381-3.527-1.034.181.021.363.032.549.032 1.078 0 2.07-.367 2.858-.984-1.008-.019-1.857-.685-2.15-1.599.141.027.285.041.434.041.209 0 .413-.027.605-.08-1.054-.212-1.847-1.142-1.847-2.257v-.028c.311.172.666.275 1.043.287-.617-.412-1.023-1.117-1.023-1.915 0-.422.113-.817.311-1.157 1.136 1.393 2.832 2.309 4.744 2.404-.04-.168-.061-.344-.061-.525 0-1.271 1.031-2.301 2.302-2.301.662 0 1.26.279 1.68.727.523-.104 1.016-.295 1.461-.559-.172.538-.537.988-1.012 1.273.465-.056.908-.18 1.322-.362-.308.462-.699.868-1.148 1.192z" enable-background="new"/></svg>